<?xml version="1.0" standalone="no"?>
<!DOCTYPE svg PUBLIC "-//W3C//DTD SVG 20010904//EN"
 "http://www.w3.org/TR/2001/REC-SVG-20010904/DTD/svg10.dtd">
<svg version="1.0" xmlns="http://www.w3.org/2000/svg"
 width="450.000000pt" height="450.000000pt" viewBox="0 0 450.000000 450.000000"
 preserveAspectRatio="xMidYMid meet">

<g transform="translate(0.000000,450.000000) scale(0.100000,-0.100000)"
fill="#000000" stroke="none">
<path d="M0 2250 l0 -2250 2250 0 2250 0 0 2250 0 2250 -2250 0 -2250 0 0
-2250z m2258 915 c62 -19 104 -52 140 -114 36 -61 38 -164 5 -227 -92 -174
-333 -176 -427 -5 -73 134 -6 302 138 347 55 17 83 17 144 -1z m562 -10 c145
-75 185 -256 82 -375 -114 -134 -321 -111 -397 44 -69 142 0 297 155 347 34
11 125 2 160 -16z m120 -770 l0 -275 -195 0 -195 0 -6 -27 c-4 -16 -13 -40
-21 -54 -14 -24 -9 -38 106 -295 67 -148 123 -273 124 -279 1 -5 -11 -10 -27
-11 -26 -1 -31 6 -71 92 l-44 94 -80 0 -81 0 0 -155 0 -155 -30 0 -30 0 0 155
0 156 -81 -3 -80 -3 -41 -92 c-38 -86 -43 -93 -69 -93 -16 0 -29 3 -29 8 0 4
56 133 124 287 69 156 120 284 116 290 -5 6 -12 26 -17 45 l-9 35 -172 3 -172
2 0 275 0 275 490 0 490 0 0 -275z m-1180 197 l145 -57 0 -125 0 -125 -155
-61 c-157 -63 -178 -66 -202 -30 -4 6 -8 104 -8 218 0 278 -9 270 220 180z"/>
<path d="M2325 1843 c-32 -71 -60 -134 -62 -140 -4 -10 12 -13 61 -13 l66 0 0
140 c0 77 -2 140 -4 140 -2 0 -29 -57 -61 -127z"/>
<path d="M2450 1832 l0 -142 65 0 c36 0 65 3 65 6 0 10 -112 258 -121 269 -5
5 -9 -52 -9 -133z"/>
</g>
</svg>
